<?xml version="1.0" encoding="utf-8"?>
<!-- Svg Vector Icons : http://www.onlinewebfonts.com/icon -->
<!DOCTYPE svg PUBLIC "-//W3C//DTD SVG 1.1//EN" "http://www.w3.org/Graphics/SVG/1.1/DTD/svg11.dtd">
<svg version="1.1" xmlns="http://www.w3.org/2000/svg" xmlns:xlink="http://www.w3.org/1999/xlink" x="0px" y="0px" viewBox="0 0 1000 1000" enable-background="new 0 0 1000 1000" xml:space="preserve">
<metadata> Svg Vector Icons : http://www.onlinewebfonts.com/icon </metadata>
<g><path d="M500,990C229.8,990,10,770.2,10,500C10,229.8,229.8,10,500,10c270.2,0,490,219.8,490,490C990,770.2,770.2,990,500,990z M500,56.7C255.5,56.7,56.7,255.5,56.7,500c0,244.5,198.9,443.3,443.3,443.3c244.5,0,443.3-198.9,443.3-443.3C943.3,255.5,744.5,56.7,500,56.7z"/><path d="M362.1,287.9L725,500L362.1,699.7V287.9z"/></g>
</svg>